<?xml version="1.0" encoding="UTF-8"?><svg id="_图层_1" xmlns="http://www.w3.org/2000/svg" viewBox="0 0 64 64"><path d="m16.57,5v35.97c0,2.94-1.02,5.77-2.84,7.89l-8.73,10.14V21.21c0-4.47,1.95-8.66,5.22-11.22l6.35-4.99Z" style="fill:#00a0da; stroke-width:0px;"/><path d="m59,46.04H26.88c-2.63,0-5.15,1.14-7.05,3.18l-9.05,9.77h33.74c3.99,0,7.73-2.18,10.03-5.84l4.45-7.11Z" style="fill:#00a0da; stroke-width:0px;"/><path d="m20.24,5h11.77v26.98c0,5.42-3.83,9.86-8.66,10.06l-3.11.13s0-37.17,0-37.17Z" style="fill:#00a0da; stroke-width:0px;"/><path d="m35.49,17.83v19.01h5.57c4,0,7.21-3.69,7.11-8.17l-.06-2.84c-.1-4.45-3.35-8-7.33-8,0,0-5.29,0-5.29,0Z" style="fill:#00a0da; stroke-width:0px;"/></svg>