<?xml version="1.0" encoding="UTF-8"?><svg id="_图层_1" xmlns="http://www.w3.org/2000/svg" viewBox="0 0 54 54"><path d="m11.57,0v35.97c0,2.94-1.02,5.77-2.84,7.89L0,54V16.21C0,11.74,1.95,7.55,5.22,4.99L11.57,0Z" style="fill:#00a0da; stroke-width:0px;"/><path d="m54,41.04H21.88c-2.63,0-5.15,1.14-7.05,3.18l-9.05,9.77h33.74c3.99,0,7.73-2.18,10.03-5.84l4.45-7.11Z" style="fill:#00a0da; stroke-width:0px;"/><path d="m15.24,0h11.77v26.98c0,5.42-3.83,9.86-8.66,10.06l-3.11.13V0Z" style="fill:#00a0da; stroke-width:0px;"/><path d="m30.49,12.83v19.01h5.57c4,0,7.21-3.69,7.11-8.17l-.06-2.84c-.1-4.45-3.35-8-7.33-8h-5.28Z" style="fill:#00a0da; stroke-width:0px;"/></svg>