<?xml version="1.0" encoding="utf-8"?>
<!-- Generator: Adobe Illustrator 28.0.0, SVG Export Plug-In . SVG Version: 6.00 Build 0)  -->
<svg version="1.1" id="_图层_1" xmlns="http://www.w3.org/2000/svg" xmlns:xlink="http://www.w3.org/1999/xlink" x="0px" y="0px"
	 viewBox="0 0 64 64" style="enable-background:new 0 0 64 64;" xml:space="preserve">
<path d="M18.3,8v32c0,2.6-0.9,5.1-2.5,7L8,56V22.4c0-4,1.7-7.7,4.6-10L18.3,8z"/>
<path d="M56,44.5H27.4c-2.3,0-4.6,1-6.3,2.8l-8,8.7h30c3.5,0,6.9-1.9,8.9-5.2L56,44.5z"/>
<path d="M21.5,8H32v24c0,4.8-3.4,8.8-7.7,8.9L21.5,41V8z"/>
<path d="M35.1,19.4v16.9h5c3.6,0,6.4-3.3,6.3-7.3l-0.1-2.5c-0.1-4-3-7.1-6.5-7.1H35.1z"/>
</svg>
